<svg width="23" height="22" viewBox="0 0 23 22" fill="none" xmlns="http://www.w3.org/2000/svg">
<mask id="mask0_0_33" style="mask-type:luminance" maskUnits="userSpaceOnUse" x="0" y="0" width="7" height="22">
<path fill-rule="evenodd" clip-rule="evenodd" d="M1.03452 1.00146H6.07129V20.975H1.03452V1.00146Z" fill="white" stroke="white"/>
</mask>
<g mask="url(#mask0_0_33)">
<path fill-rule="evenodd" clip-rule="evenodd" d="M1.29689 20.9749H5.77665V7.49707H1.29689V20.9749Z" fill="#006699" stroke="black"/>
<path fill-rule="evenodd" clip-rule="evenodd" d="M3.56636 1C2.03399 1 1.03207 2.0062 1.03207 3.32878C1.03207 4.62212 2.00416 5.65706 3.5075 5.65706H3.53669C5.09905 5.65706 6.0713 4.62212 6.0713 3.32878C6.04211 2.0062 5.09905 1 3.56636 1Z" fill="#006699" stroke="black"/>
</g>
<path fill-rule="evenodd" clip-rule="evenodd" d="M16.7727 7.18066C14.3957 7.18066 13.3307 8.48695 12.7353 9.40544V7.49699H8.25545V20.9748H12.7352V13.4482C12.7352 13.0453 12.7643 12.643 12.8827 12.3549C13.2065 11.5502 13.9436 10.7167 15.1811 10.7167C16.8021 10.7167 17.4506 11.9527 17.4506 13.7645V20.9748H21.93V13.2468C21.93 9.10699 19.7199 7.18066 16.7727 7.18066Z" fill="#006699" stroke="black"/>
</svg>
