<svg width="26" height="22" viewBox="0 0 26 22" fill="none" xmlns="http://www.w3.org/2000/svg">
<mask id="mask0_0_25" style="mask-type:luminance" maskUnits="userSpaceOnUse" x="0" y="0" width="26" height="22">
<path fill-rule="evenodd" clip-rule="evenodd" d="M1 1.04346H25.4606V20.9618H1V1.04346Z" fill="white" stroke="white"/>
</mask>
<g mask="url(#mask0_0_25)">
<path fill-rule="evenodd" clip-rule="evenodd" d="M8.65981 20.9616C17.9089 20.9616 22.9666 13.2992 22.9666 6.65478C22.9666 6.43727 22.9621 6.22053 22.9524 6.0049C23.9341 5.29521 24.7875 4.4094 25.4606 3.40106C24.5597 3.80163 23.5899 4.07103 22.573 4.19281C23.6111 3.57027 24.4082 2.58557 24.7841 1.41161C23.8125 1.98753 22.7365 2.40605 21.5911 2.63199C20.6736 1.65478 19.3671 1.04346 17.9205 1.04346C15.1438 1.04346 12.892 3.29521 12.892 6.07099C12.892 6.46576 12.9361 6.84945 13.0224 7.21761C8.84321 7.00739 5.13746 5.00667 2.65765 1.96394C2.22585 2.70715 1.97683 3.57046 1.97683 4.49147C1.97683 6.23588 2.8647 7.77607 4.21439 8.67684C3.38945 8.65156 2.61458 8.42504 1.93712 8.04811C1.93635 8.06931 1.93635 8.08969 1.93635 8.11219C1.93635 10.5475 3.66954 12.5809 5.9706 13.0415C5.54811 13.1564 5.10336 13.2184 4.6447 13.2184C4.32115 13.2184 4.00604 13.1866 3.69952 13.1277C4.33971 15.1257 6.19616 16.5795 8.39698 16.6201C6.67597 17.9691 4.50777 18.7726 2.15165 18.7726C1.74623 18.7726 1.34566 18.7494 0.952038 18.7031C3.17736 20.1294 5.82014 20.9618 8.66 20.9618" fill="#1DA1F2"/>
<path d="M8.65981 20.9616C17.9089 20.9616 22.9666 13.2992 22.9666 6.65478C22.9666 6.43727 22.9621 6.22053 22.9524 6.0049C23.9341 5.29521 24.7875 4.4094 25.4606 3.40106C24.5597 3.80163 23.5899 4.07103 22.573 4.19281C23.6111 3.57027 24.4082 2.58557 24.7841 1.41161C23.8125 1.98753 22.7365 2.40605 21.5911 2.63199C20.6736 1.65478 19.367 1.04346 17.9205 1.04346C15.1438 1.04346 12.892 3.29521 12.892 6.07099C12.892 6.46576 12.9361 6.84945 13.0224 7.21761C8.84321 7.00739 5.13746 5.00667 2.65765 1.96394C2.22585 2.70715 1.97683 3.57046 1.97683 4.49147C1.97683 6.23588 2.8647 7.77607 4.21439 8.67684C3.38945 8.65156 2.61458 8.42504 1.93712 8.04811C1.93635 8.06931 1.93635 8.08969 1.93635 8.11219C1.93635 10.5475 3.66954 12.5809 5.9706 13.0415C5.54811 13.1564 5.10336 13.2184 4.6447 13.2184C4.32115 13.2184 4.00604 13.1866 3.69952 13.1277C4.33971 15.1257 6.19616 16.5795 8.39698 16.6201C6.67597 17.9691 4.50777 18.7726 2.15165 18.7726C1.74623 18.7726 1.34566 18.7494 0.952038 18.7031C3.17736 20.1294 5.82014 20.9618 8.66 20.9618" stroke="black"/>
</g>
</svg>
