<svg width="30" height="22" viewBox="0 0 30 22" fill="none" xmlns="http://www.w3.org/2000/svg">
<mask id="mask0_0_39" style="mask-type:luminance" maskUnits="userSpaceOnUse" x="0" y="0" width="30" height="22">
<path fill-rule="evenodd" clip-rule="evenodd" d="M0.511734 1H29.032V20.9713H0.511734V1Z" fill="white" stroke="white"/>
</mask>
<g mask="url(#mask0_0_39)">
<path fill-rule="evenodd" clip-rule="evenodd" d="M28.4443 4.12501C28.1155 2.90306 27.1521 1.93989 25.9306 1.61086C23.6985 1 14.77 1 14.77 1C14.77 1 5.84176 1 3.60967 1.58758C2.41146 1.91638 1.42455 2.90329 1.09575 4.12501C0.508392 6.35688 0.508392 10.9856 0.508392 10.9856C0.508392 10.9856 0.508392 15.6377 1.09575 17.8463C1.42477 19.068 2.38795 20.0314 3.6099 20.3604C5.86527 20.9713 14.7702 20.9713 14.7702 20.9713C14.7702 20.9713 23.6985 20.9713 25.9306 20.3837C27.1523 20.0549 28.1155 19.0915 28.4445 17.8697C29.0318 15.6377 29.0318 11.0091 29.0318 11.0091C29.0318 11.0091 29.0554 6.35688 28.4443 4.12501Z" fill="#FF0000" stroke="black"/>
</g>
<path fill-rule="evenodd" clip-rule="evenodd" d="M11.9273 15.2619L19.3517 10.9857L11.9273 6.70947V15.2619Z" fill="white" stroke="black"/>
</svg>
